/* XPM */
static char *result[] = {
/* columns rows colors chars-per-pixel */
"16 16 10 1 ",
"  c #141B1B",
". c #3B3643",
"X c #4E484A",
"o c #D14B34",
"O c #8F3E56",
"+ c #A8A129",
"@ c #548789",
"# c #79B8CE",
"$ c #9BA7AA",
"% c None",
/* pixels */
"%%%%%%%%%%%%%%%%",
"%%%%%  %%%  %%%%",
"%%%% ++ % ++ %%%",
"%%% ++++ ++++ %%",
"%%% +.......+ %%",
"%% +.XX......+ %",
"%% +.XX......+ %",
"%% $.........$ %",
"%% $$.......$$ %",
"%%% $$$$$$$$$ %%",
"%%  ......... %%",
"% OOO.......O %%",
"% OO OOOOOOO@# %",
"%%  OOO@@@@@@# %",
"% oo  @@@@@##oo ",
"% oo@@@   @@@oo "
};
