/* XPM */
static char *result[] = {
/* columns rows colors chars-per-pixel */
"16 16 8 1 ",
"  c #D6A054",
". c #294D48",
"X c #3BB32A",
"o c #A7CF59",
"O c gray13",
"+ c #368751",
"@ c #B88056",
"# c white",
/* pixels */
"                ",
"                ",
"                ",
"                ",
"      .....     ",
"     .XoooX.    ",
"    .XoooooX.   ",
"   .XXoooooXX.  ",
"   .XXXoooXXX.  ",
"   .XXXXXXXXX.  ",
"   O+XXXXXXX+O  ",
"   O++XXXXX++O  ",
"   @O+++++++O@  ",
"   @@O+++++O@@  ",
"    @@OOOOO@@   ",
"     @@@@@@@    "
};
