/* XPM */
static char *result[] = {
/* columns rows colors chars-per-pixel */
"16 16 3 1 ",
"  c #6BB0E4",
". c #98DDED",
"X c white",
/* pixels */
"                ",
"   . .....      ",
"                ",
"                ",
"                ",
"                ",
"                ",
"                ",
"                ",
"                ",
"                ",
"     ..         ",
"        ......  ",
"                ",
"                ",
"                "
};
