/* XPM */
static char *result[] = {
/* columns rows colors chars-per-pixel */
"16 16 11 1 ",
"  c #141B1B",
". c #3B3643",
"X c #D14B34",
"o c #8F3E56",
"O c #E0394C",
"+ c #56864C",
"@ c #A8A129",
"# c #EF914F",
"$ c #548789",
"% c #79B8CE",
"& c None",
/* pixels */
"&&&&&&&&&&&&&&&&",
"&&&&&&&&&&&&&&&&",
"&&&&&&&&&&&&&&&&",
"&&&&  &&&  &&&&&",
"&&& @@   @@ &&&&",
"&& @@@@.@@@@ &&&",
"&& @@@@@@@@@ &&&",
"& @@ @@@@@ @@ &&",
"& @@@@ @ @@@@ &&",
"& @OO@   @OO@  &",
"& +@@@@@@@@@@ o ",
"&& +@@@@@@@+ oo ",
"& oo+++++++oo  &",
"& %ooOOOOOoo% &&",
" XX%%ooooo%%XX &",
" ##$$$   $$$## &"
};
