/* XPM */
static char *result[] = {
/* columns rows colors chars-per-pixel */
"16 16 11 1 ",
"  c #141B1B",
". c #3B3643",
"X c #8F3E56",
"o c #E0394C",
"O c #56864C",
"+ c #A8A129",
"@ c #EF914F",
"# c #548789",
"$ c #79B8CE",
"% c #9BA7AA",
"& c None",
/* pixels */
"&&&&&&&&&&&&&&&&",
"&&&&&&&&  & &&&&",
"&&&&    ++ + &&&",
"&&& .. ++++ + &&",
"&& .. +++++++ &&",
"&& .. ++++ +++ &",
"&& ..+++++++ + &",
"&& ..++++oo+   &",
"& %%%O++++++++ &",
"&& ...O++++++O &",
"&  ....OOOOOO &&",
" XX XXXXXXooo &&",
" XXXXXXXXXXXX &&",
"&   ## ###XX &&&",
"&& #$$ @@ #$$ &&",
"&& ####  #### &&"
};
