/* XPM */
static char *result[] = {
/* columns rows colors chars-per-pixel */
"16 16 10 1 ",
"  c #D6A054",
". c #368751",
"X c #294D48",
"o c #4FA63F",
"O c #A7CF59",
"+ c gray13",
"@ c #3BB32A",
"# c #2B5447",
"$ c #B88056",
"% c white",
/* pixels */
"      .XX.      ",
"     XoOOoX XX+ ",
"    +@OOOO@+OO@+",
"    +@OOOO@XOOOX",
"    #@@OO@@XOO@X",
" +XXX@@@@@@@@@@X",
"+@OOX@@@@@@@@@.X",
"XOOO.@@@@@@...X ",
"X@OO.@@@@@@X.X  ",
"X.@@@@@@@@@X+   ",
" +..X@@@@@@X$$$ ",
"  +X+.@@@@.+$$$$",
" $$$+......+$$$$",
" $$$$+....+$$$$ ",
"  $$$$$$$$$$$   ",
"     $$$$$$     "
};
